<svg width="68" height="68" fill="none" xmlns="http://www.w3.org/2000/svg"><path d="M34 13.414c-11.351 0-20.586 9.235-20.586 20.586 0 11.351 9.235 20.586 20.586 20.586 11.351 0 20.586-9.235 20.586-20.586 0-11.351-9.235-20.586-20.586-20.586zm0 37.188c-9.154 0-16.602-7.448-16.602-16.602S24.846 17.398 34 17.398 50.602 24.846 50.602 34 43.154 50.602 34 50.602z" fill="#245462"/><path d="M41.969 24.04H26.03c-1.1 0-1.992.891-1.992 1.991V41.97c0 1.1.892 1.992 1.992 1.992h15.94c1.1 0 1.992-.892 1.992-1.992V26.03c0-1.1-.892-1.992-1.992-1.992zm-1.992 15.937H28.023V28.023h3.985v1.993a1.992 1.992 0 003.984 0v-1.993h3.985v11.954z" fill="#245462"/><path d="M66.008 26.695h-4.399a28.23 28.23 0 00-2.928-7.045l3.117-3.118a1.992 1.992 0 000-2.817l-7.513-7.513a1.992 1.992 0 00-2.817 0L48.35 9.319a28.226 28.226 0 00-7.045-2.928V1.992c0-1.1-.892-1.992-1.992-1.992H28.687c-1.1 0-1.992.892-1.992 1.992v4.399a28.229 28.229 0 00-7.045 2.928l-3.118-3.117a1.992 1.992 0 00-2.817 0l-7.513 7.513a1.992 1.992 0 000 2.817l3.117 3.117a28.229 28.229 0 00-2.928 7.046H1.992c-1.1 0-1.992.892-1.992 1.992v10.625c0 1.1.892 1.993 1.992 1.993h4.399a28.23 28.23 0 002.928 7.045l-3.117 3.118a1.992 1.992 0 000 2.817l7.513 7.513a1.992 1.992 0 002.817 0l3.117-3.117a28.23 28.23 0 007.046 2.928v4.399c0 1.1.892 1.992 1.992 1.992h10.625c1.1 0 1.992-.892 1.992-1.992v-4.399a28.23 28.23 0 007.046-2.928l3.117 3.117a1.992 1.992 0 002.818 0l7.513-7.513a1.992 1.992 0 000-2.817L58.68 48.35a28.23 28.23 0 002.929-7.045h4.399c1.1 0 1.992-.892 1.992-1.992V28.688c0-1.1-.892-1.993-1.992-1.993zM64.016 37.32h-3.987c-.947 0-1.764.668-1.952 1.596a24.32 24.32 0 01-3.584 8.625 1.992 1.992 0 00.252 2.509l2.827 2.826-4.696 4.696-2.826-2.827a1.992 1.992 0 00-2.509-.252 24.32 24.32 0 01-8.625 3.584 1.992 1.992 0 00-1.596 1.952v3.987h-6.64v-3.987c0-.947-.667-1.764-1.596-1.952a24.32 24.32 0 01-8.625-3.584 1.992 1.992 0 00-2.508.252l-2.827 2.827-4.696-4.696 2.827-2.826c.67-.67.775-1.719.252-2.509a24.324 24.324 0 01-3.584-8.625 1.993 1.993 0 00-1.952-1.596H3.984v-6.64h3.987c.947 0 1.764-.668 1.952-1.596a24.32 24.32 0 013.584-8.625 1.992 1.992 0 00-.252-2.509l-2.827-2.826 4.695-4.696 2.827 2.827c.67.67 1.719.775 2.509.252a24.318 24.318 0 018.625-3.584 1.992 1.992 0 001.596-1.952V3.984h6.64v3.987c0 .947.668 1.764 1.596 1.952a24.323 24.323 0 018.625 3.584c.79.523 1.839.418 2.509-.252l2.826-2.827 4.696 4.695-2.827 2.827a1.992 1.992 0 00-.252 2.509 24.32 24.32 0 013.584 8.625 1.992 1.992 0 001.952 1.596h3.987v6.64z" fill="#245462"/></svg>