<svg width="18" height="14" fill="none" xmlns="http://www.w3.org/2000/svg"><path d="M17.643 7.97c0-.584-.32-1.11-.833-1.373-.524-.268-1.203-.404-2.018-.404H5.94a1.771 1.771 0 00-.417-.843L4.266 3.955a1.848 1.848 0 00-1.257-.59l-.225-.017a.887.887 0 00-.346.046v-.738A.904.904 0 002.156 2a1.22 1.22 0 00-.936-2 1.22 1.22 0 00-.937 1.999.904.904 0 00-.283.657v11c0 .19.154.344.345.344h1.189a.345.345 0 00.343-.312c.041-.434.27-1.626.84-2.16h.922a.345.345 0 000-.69H.689V7.806h4.6v.898c0 .531.432.963.963.963H16.68a.968.968 0 00.274-.04v1.213H6.671a.345.345 0 000 .689h8.256c.566.533.797 1.726.84 2.16a.345.345 0 00.342.312h1.19c.19 0 .344-.154.344-.345V7.97zM2.44 4.52c.005-.146-.015-.298.106-.406.122-.108.268-.073.416-.062.325.023.6.149.793.364L5.01 5.81c.203.227.3.542.274.888-.01.133-.007.252-.12.346-.102.085-.214.07-.337.066-.347-.01-.65-.141-.854-.367L2.717 5.348a1.166 1.166 0 01-.278-.827zM.69 7.117v-4.46c0-.12.098-.218.218-.218h.624c.12 0 .218.098.218.218v4.46H.69zm1.75-1.048l.941 1.048h-.942V6.068zM1.218.69a.53.53 0 11-.001 1.061.53.53 0 01.001-1.06zm.015 12.622H.689v-1.783h1.156c-.373.61-.542 1.365-.611 1.783zm5.018-4.334a.275.275 0 01-.274-.274v-1.82h8.814c.705 0 1.278.11 1.704.328a.846.846 0 01.458.758v.734a.275.275 0 01-.274.274H6.252zm10.158 4.334c-.07-.418-.238-1.173-.611-1.783h1.155v1.783h-.544z" fill="#686868"/><path d="M5.473 11.051a.348.348 0 00-.45-.186.347.347 0 00-.186.45.348.348 0 00.45.187.348.348 0 00.186-.45z" fill="#686868"/></svg>