<svg width="14" height="14" fill="none" xmlns="http://www.w3.org/2000/svg"><path d="M13.882 11.662a.41.41 0 00-.577-.007h-.003l.002-.003c-.001.002-.05.047-.152.121V5.385a.41.41 0 10-.82 0v.405c-1.464-.033-2.219-.244-2.95-.448-.674-.19-1.311-.368-2.382-.368-1.071 0-1.708.179-2.383.368-.73.204-1.485.415-2.95.448V3.744c0-1.472.672-2.474 1.89-2.822a2.623 2.623 0 012.94 1.123c-.15.073-.276.153-.38.237l-.468-.469a.41.41 0 00-.58.58l.53.53-.53.531a.41.41 0 10.58.58l.469-.469c.142.116.326.222.553.317.388.163.85.272 1.15.272a1.231 1.231 0 000-2.46c-.149 0-.336.026-.535.073A3.443 3.443 0 003.332.133C1.753.584.848 1.9.848 3.744v8.03a1.688 1.688 0 01-.153-.122l.003.003H.695a.41.41 0 00-.572.587c.035.035.5.478 1.585.909C2.792 13.58 4.494 14 7 14s4.208-.418 5.292-.85c1.084-.43 1.55-.873 1.585-.908a.41.41 0 00.005-.58zM7.096 2.679c.293-.108.586-.165.724-.165a.41.41 0 010 .82c-.138 0-.43-.057-.724-.166a1.626 1.626 0 01-.466-.244c.069-.058.212-.15.466-.245zM1.668 6.61c1.582-.034 2.422-.27 3.17-.479.646-.18 1.203-.336 2.162-.336.958 0 1.516.156 2.162.336.747.21 1.588.445 3.17.48v4.106H1.668V6.61zm0 4.927h10.664v.703c-1.56.716-3.601.937-5.332.937-1.73 0-3.772-.22-5.332-.937v-.703z" fill="#686868"/><path d="M3.718 9.896a.41.41 0 00.41-.41v-1.64a.41.41 0 00-.82 0v1.64c0 .227.184.41.41.41zm1.641 0a.41.41 0 00.41-.41v-1.64a.41.41 0 00-.82 0v1.64c0 .227.183.41.41.41zm1.641 0a.41.41 0 00.41-.41v-1.64a.41.41 0 00-.82 0v1.64c0 .227.183.41.41.41zm1.64 0a.41.41 0 00.41-.41v-1.64a.41.41 0 00-.82 0v1.64c0 .227.184.41.41.41zm1.64 0a.41.41 0 00.41-.41v-1.64a.41.41 0 10-.82 0v1.64c0 .227.184.41.41.41z" fill="#686868"/></svg>