<svg width="12" height="14" fill="none" xmlns="http://www.w3.org/2000/svg"><path d="M10.527 13.098H1.23c-.678 0-1.23-.552-1.23-1.23V1.23C0 .552.552 0 1.23 0h9.297c.679 0 1.23.552 1.23 1.23v10.637a1.23 1.23 0 01-1.23 1.23zM1.23.82a.41.41 0 00-.41.41v10.637c0 .226.184.41.41.41h9.297a.41.41 0 00.41-.41V1.23a.41.41 0 00-.41-.41H1.23z" fill="#686868"/><path d="M2.379 14a.41.41 0 01-.41-.41v-.902a.41.41 0 01.82 0v.902a.41.41 0 01-.41.41zm7 0a.41.41 0 01-.41-.41v-.902a.41.41 0 01.82 0v.902a.41.41 0 01-.41.41zm-3.5-.902a.41.41 0 01-.41-.41V.41a.41.41 0 01.82 0v12.277a.41.41 0 01-.41.41z" fill="#686868"/><path d="M11.348 9.598h-5.47a.41.41 0 010-.82h5.47a.41.41 0 010 .82zm-2.407 1.777h-.656a.41.41 0 110-.82h.656a.41.41 0 110 .82zM4.129 6.973a.41.41 0 01-.41-.41v-.657a.41.41 0 01.82 0v.657a.41.41 0 01-.41.41zm3.5 0a.41.41 0 01-.41-.41v-.657a.41.41 0 01.82 0v.657a.41.41 0 01-.41.41z" fill="#686868"/></svg>