<svg width="20" height="14" fill="none" xmlns="http://www.w3.org/2000/svg"><path d="M17.5 0H1.59A1.593 1.593 0 000 1.59v10.82A1.593 1.593 0 001.59 14H17.5a1.592 1.592 0 001.59-1.59V1.59A1.593 1.593 0 0017.5 0zm0 13.364H1.59a.955.955 0 01-.954-.955v-.319c.275.207.61.32.955.32h1.273v-.637H1.59a.955.955 0 01-.955-.955V10.5c.275.207.61.32.955.32H17.5c.344 0 .68-.113.954-.32v.32a.955.955 0 01-.954.954h-5.09v.636h5.09c.344 0 .68-.112.954-.319v.32a.955.955 0 01-.954.954zm.954-4.137a.955.955 0 01-.954.955H1.59a.956.956 0 01-.954-.955V1.591a.956.956 0 01.955-.955H17.5a.955.955 0 01.954.955v7.636z" fill="#686868"/><path d="M3.5 11.773h.636v.636H3.5v-.636zm7.636 0h.637v.636h-.637v-.636zM3.5 2.227v-.636h-.636v.636a.319.319 0 01-.319.318H1.91v.637h.636a.319.319 0 01.319.318v1.273a.319.319 0 01-.319.318H1.91v.636h.636a.319.319 0 01.319.318v1.273a.319.319 0 01-.319.318H1.91v.637h.636a.319.319 0 01.319.318v.636H3.5v-.636a.319.319 0 01.318-.318h.637v-.637h-.637a.319.319 0 01-.318-.318V6.045a.319.319 0 01.318-.318h.637v-.636h-.637a.319.319 0 01-.318-.318V3.5a.319.319 0 01.318-.318h.637v-.637h-.637a.319.319 0 01-.318-.318zm3.182 0v-.636h-.637v.636a.318.318 0 01-.318.318h-.636v.637h.636a.319.319 0 01.318.318v1.273a.319.319 0 01-.318.318h-.636v.636h.636a.319.319 0 01.318.318v1.273a.318.318 0 01-.318.318h-.636v.637h.636a.319.319 0 01.318.318v.636h.637v-.636A.319.319 0 017 8.273h.636v-.637H7a.319.319 0 01-.318-.318V6.045A.319.319 0 017 5.727h.636v-.636H7a.319.319 0 01-.318-.318V3.5A.319.319 0 017 3.182h.636v-.637H7a.319.319 0 01-.318-.318zm3.182 0v-.636h-.637v.636a.319.319 0 01-.318.318h-.636v.637h.636a.319.319 0 01.318.318v1.273a.319.319 0 01-.318.318h-.636v.636h.636a.319.319 0 01.318.318v1.273a.319.319 0 01-.318.318h-.636v.637h.636a.319.319 0 01.318.318v.636h.637v-.636a.319.319 0 01.318-.318h.636v-.637h-.636a.319.319 0 01-.318-.318V6.045a.319.319 0 01.318-.318h.636v-.636h-.636a.319.319 0 01-.318-.318V3.5a.319.319 0 01.318-.318h.636v-.637h-.636a.319.319 0 01-.318-.318zm3.182 0v-.636h-.637v.636a.319.319 0 01-.318.318h-.636v.637h.636a.319.319 0 01.318.318v1.273a.319.319 0 01-.318.318h-.636v.636h.636a.319.319 0 01.318.318v1.273a.319.319 0 01-.318.318h-.636v.637h.636a.319.319 0 01.318.318v.636h.636v-.636a.318.318 0 01.319-.318H14v-.637h-.636a.318.318 0 01-.319-.318V6.045a.318.318 0 01.319-.318H14v-.636h-.636a.318.318 0 01-.319-.318V3.5a.318.318 0 01.319-.318H14v-.637h-.636a.318.318 0 01-.319-.318zm3.181 0v-.636h-.636v.636a.318.318 0 01-.318.318h-.637v.637h.637a.318.318 0 01.318.318v1.273a.318.318 0 01-.318.318h-.637v.636h.637a.318.318 0 01.318.318v1.273a.318.318 0 01-.318.318h-.637v.637h.637a.318.318 0 01.318.318v.636h.636v-.636a.318.318 0 01.319-.318h.636v-.637h-.636a.318.318 0 01-.319-.318V6.045a.318.318 0 01.319-.318h.636v-.636h-.636a.318.318 0 01-.319-.318V3.5a.318.318 0 01.319-.318h.636v-.637h-.636a.318.318 0 01-.319-.318z" fill="#686868"/></svg>