<svg width="46" height="46" fill="none" xmlns="http://www.w3.org/2000/svg"><circle cx="23" cy="23" r="23" fill="#fff"/><path d="M33 19.39a.586.586 0 00-.173-.418L27.816 14a.586.586 0 00-.827.002l-1.456 1.456a6.508 6.508 0 00-2.533.261 6.502 6.502 0 00-2.533-.261l-1.456-1.456a.586.586 0 00-.827-.002l-5.01 4.972a.586.586 0 00.003.835l1.49 1.456a6.507 6.507 0 00.284 2.6c.17.527.404 1.021.697 1.48l-.26.26a1.76 1.76 0 00.546 2.856 1.757 1.757 0 002.398 2.4 1.76 1.76 0 002.857.545l.154-.155.358.358c.02.02.04.037.062.053.331.33.77.51 1.237.51a1.75 1.75 0 001.24-.511c.327-.318.211-.204.417-.41.204.203.613.669 1.398.669a1.757 1.757 0 001.614-1.06 1.76 1.76 0 002.115-.283 1.76 1.76 0 00.282-2.116 1.757 1.757 0 00.546-2.856l-.261-.262a6.499 6.499 0 00.983-4.078l1.49-1.456A.586.586 0 0033 19.39zm-16.784 7.87a.587.587 0 010-.829l.158-.157c.05.053.1.106.151.157l.675.675-.155.154a.587.587 0 01-.829 0zm1.658 2.486a.586.586 0 11-.829-.829l.983-.983.829.829-.983.983zm2.486.829a.586.586 0 01-.829-.83l.154-.154.83.83-.155.154zm9.424-3.315a.587.587 0 01-.83 0l-4.142-4.143a.586.586 0 10-.829.828l4.972 4.972a.587.587 0 01-.829.829l-4.972-4.972a.586.586 0 10-.828.829l4.143 4.143a.586.586 0 11-.829.829l-4.143-4.144a.586.586 0 00-.829.829l3.16 3.16c-.19.19-.104.106-.407.4l-.007.006a.582.582 0 01-.835-.006c-.348-.338-4.851-4.844-5.225-5.217a5.234 5.234 0 01-1.492-4.476.586.586 0 00-.17-.501l-1.27-1.241 4.173-4.142 1.245 1.244c.13.13.314.192.496.166.288-.04.579-.057.87-.05a6.497 6.497 0 00-.846.713l-3.315 3.315a1.757 1.757 0 102.486 2.486l2.35-2.35a4.106 4.106 0 002.355.117l5.547 5.547c.23.23.23.6 0 .829zm.525-6.634a.586.586 0 00-.171.501 5.317 5.317 0 01-.64 3.36l-4.092-4.09a4.09 4.09 0 00.754-.595.586.586 0 00-.828-.828 2.935 2.935 0 01-3.335.572.586.586 0 00-.667.115l-2.627 2.627a.587.587 0 01-.83-.829l3.315-3.314a5.236 5.236 0 014.476-1.492.585.585 0 00.496-.166l1.245-1.244 4.174 4.142-1.27 1.24z" fill="#000"/></svg>