<svg width="46" height="46" fill="none" xmlns="http://www.w3.org/2000/svg"><circle cx="23" cy="23" r="23" fill="#fff"/><path d="M25.803 25.196l3.138-1.812a.586.586 0 00-.586-1.014l-3.138 1.811a.586.586 0 10.586 1.015z" fill="#000"/><path d="M31.445 17.785l-8.152-4.707a.586.586 0 00-.586 0l-8.153 4.707a.586.586 0 00-.293.508v9.414c0 .21.111.403.293.508l8.153 4.707a.586.586 0 00.585 0l8.153-4.707a.586.586 0 00.293-.508v-9.414a.586.586 0 00-.293-.508zm-4.18-1.06l-6.98 4.031-1.546-.892 6.981-4.03 1.546.892zM19.7 21.771v1.78l-1.548-.894.002-1.779 1.546.893zm3.3-7.509l1.55.895-6.982 4.03-1.548-.894 6.98-4.03zM22.415 31.4l-6.981-4.03v-8.061l1.548.894-.002 2.792c0 .21.111.404.293.508l2.72 1.571c.305.176.58.003.586 0a.586.586 0 00.293-.508v-2.117l1.543.89V31.4zM23 22.323l-1.543-.89 6.98-4.03 1.543.89-6.98 4.03zm7.567 5.046l-6.982 4.03v-8.06l6.982-4.031v8.06z" fill="#000"/><path d="M28.355 25.508l-3.138 1.811a.586.586 0 00.586 1.015l3.138-1.811a.586.586 0 00-.586-1.015z" fill="#000"/></svg>