<svg width="22" height="22" fill="none" xmlns="http://www.w3.org/2000/svg"><path d="M21.27 0H.645a.645.645 0 000 1.29h.042v20.066a.645.645 0 001.29 0v-.387h17.96v.386a.645.645 0 001.29 0V1.29h.043a.645.645 0 100-1.289zm-9.668 13.363h8.335v2.492h-8.335v-2.492zm8.335-1.289h-8.335V9.582h8.335v2.492zm-9.625 7.606H6.79V1.29h3.524v18.39zM1.977 1.29H5.5v18.39H1.977V1.29zm9.625 18.39v-2.535h8.335v2.535h-8.335zm8.335-11.387h-8.335V1.289h8.335v7.004z" fill="#000"/><path d="M8.55 11.645a.644.644 0 100-1.29.644.644 0 000 1.29zm-4.812 0a.645.645 0 100-1.29.645.645 0 000 1.29z" fill="#000"/></svg>