<svg width="30" height="23" fill="none" xmlns="http://www.w3.org/2000/svg"><path d="M29.531 15.938h-1.406v-2.813h.938a.469.469 0 00.462-.546l-.47-2.812a.469.469 0 00-.461-.392h-1.875a.469.469 0 00-.462.392l-.47 2.812a.469.469 0 00.463.546h.938v2.813h-1.875a.393.393 0 00-.047.009 2.347 2.347 0 00-2.297-1.884h-.938v-1.407c0-.776-.63-1.406-1.406-1.406h-3.75c-.777 0-1.406.63-1.406 1.406v1.406h-.938v-1.406c0-.776-.63-1.406-1.406-1.406h-3.75c-.777 0-1.406.63-1.406 1.406v1.406H7.03a2.347 2.347 0 00-2.297 1.885.392.392 0 00-.046-.01H2.813v-2.812h.937a.469.469 0 00.462-.546l-.469-2.812a.469.469 0 00-.462-.392H1.406a.469.469 0 00-.462.392l-.469 2.812a.469.469 0 00.463.546h.937v2.813H.469a.469.469 0 00-.469.468v5.157c0 .258.21.468.469.468H29.53c.26 0 .469-.21.469-.468v-5.157a.469.469 0 00-.469-.468zm-28.04-3.75l.312-1.876h1.081l.312 1.876H1.491zm2.728 8.906H.937v-4.219H4.22v4.219zm12.187-8.438c0-.259.21-.469.469-.469h3.75a.47.47 0 01.469.47v1.405h-4.688v-1.406zm-7.5 0c0-.259.21-.469.469-.469h3.75a.47.47 0 01.469.47v1.405H8.906v-1.406zm15.469 8.438H5.625v-1.407h18.75v1.407zm0-2.344H5.625v-2.344c0-.776.63-1.406 1.406-1.406H22.97c.776 0 1.406.63 1.406 1.406v2.344zm2.429-6.563l.312-1.874h1.08l.313 1.874h-1.705zm2.259 8.907H25.78v-4.219h3.282v4.219zM9.375 8.438h10.313c.258 0 .468-.21.468-.47v-7.5A.469.469 0 0019.688 0H9.374a.469.469 0 00-.469.469v7.5c0 .259.21.468.469.468zm.469-7.5h9.375v4.756l-1.04-1.3a.47.47 0 00-.698-.039L15.937 5.9l-2.95-2.95a.469.469 0 00-.635-.025l-2.508 2.15V.937zm0 5.37l2.787-2.39 2.975 2.974c.183.183.48.183.663 0l1.505-1.504 1.445 1.808V7.5H9.844V6.309z" fill="#000"/><path d="M16.406 4.219a1.406 1.406 0 100-2.813 1.406 1.406 0 000 2.813zm0-1.875a.469.469 0 110 .937.469.469 0 010-.937z" fill="#000"/></svg>