<svg width="23" height="23" fill="none" xmlns="http://www.w3.org/2000/svg"><path d="M11.5 0v12.938H0V23h23V0H11.5zm0 21.563H1.437v-7.188H11.5v7.188zm10.063 0h-8.625V7.188h8.624v14.375zm0-15.813h-8.625V1.437h8.624V5.75z" fill="#000"/><path d="M10.063 4.734L8.624 3.296V0H7.187v3.891L8.626 5.33v.421h-5.75V5.33l1.437-1.44V0H2.875v3.296L1.437 4.734v2.454h8.626V4.733zM8.625 15.813H4.312v1.437h4.313v-1.438zm7.188-12.938h-1.438v1.438h1.438V2.875zm0 7.188h-1.438v4.312h1.438v-4.313zM2.875 8.625H1.437v1.438h1.438V8.624zm3.594 0H5.03v1.438h1.44V8.624zm3.594 0H8.624v1.438h1.438V8.624z" fill="#000"/></svg>