<svg width="16" height="16" fill="none" xmlns="http://www.w3.org/2000/svg"><path fill-rule="evenodd" clip-rule="evenodd" d="M8 1L1 7v7a1 1 0 001 1h4v-3a2 2 0 114 0v3h4a1 1 0 001-1V7L8 1z" fill="#414141"/><path d="M8 1l.325-.38a.5.5 0 00-.65 0L8 1zM1 7l-.325-.38-.175.15V7H1zm5 8v.5a.5.5 0 00.5-.5H6zm4 0h-.5a.5.5 0 00.5.5V15zm5-8h.5v-.23l-.175-.15L15 7zM2 15.5h4v-1H2v1zm13.325-8.88l-7-6-.65.76 7 6 .65-.76zm-7.65-6l-7 6 .65.76 7-6-.65-.76zM6.5 15v-3h-1v3h1zm3-3v3h1v-3h-1zm.5 3.5h4v-1h-4v1zm5.5-1.5V7h-1v7h1zM.5 7v7h1V7h-1zM8 10.5A1.5 1.5 0 019.5 12h1A2.5 2.5 0 008 9.5v1zm0-1A2.5 2.5 0 005.5 12h1A1.5 1.5 0 018 10.5v-1zm6 6a1.5 1.5 0 001.5-1.5h-1a.5.5 0 01-.5.5v1zm-12-1a.5.5 0 01-.5-.5h-1A1.5 1.5 0 002 15.5v-1z" fill="#fff"/></svg>