<svg width="16" height="16" fill="none" xmlns="http://www.w3.org/2000/svg"><path d="M5.5 6h1m3 4h1m0-4.5l-5 5m1.801-9.21L6.172 2.417a.988.988 0 01-.698.29H3.696a.988.988 0 00-.988.988v1.778a.988.988 0 01-.29.698L1.29 7.302a.988.988 0 000 1.397l1.13 1.129a.987.987 0 01.289.698v1.778c0 .546.442.988.988.988h1.778c.262 0 .513.104.698.29l1.13 1.129a.988.988 0 001.397 0l1.129-1.13a.988.988 0 01.698-.289h1.778a.988.988 0 00.988-.988v-1.778c0-.262.104-.513.29-.698l1.129-1.13a.988.988 0 000-1.397l-1.13-1.129a.988.988 0 01-.289-.698V3.696a.988.988 0 00-.988-.988h-1.778a.988.988 0 01-.698-.29L8.698 1.29a.988.988 0 00-1.397 0z" stroke="#E92D2D"/></svg>