<svg width="14" height="14" fill="none" xmlns="http://www.w3.org/2000/svg"><path d="M13.535 0H.41a.41.41 0 000 .82h.028v12.77a.41.41 0 10.82 0v-.246h11.43v.246a.41.41 0 10.82 0V.82h.027a.41.41 0 000-.82zM7.383 8.504h5.304v1.586H7.383V8.504zm5.304-.82H7.383V6.098h5.304v1.586zm-6.124 4.84H4.32V.82h2.242v11.703zM1.258.82H3.5v11.703H1.258V.82zm6.125 11.703V10.91h5.304v1.613H7.383zm5.304-7.246H7.383V.82h5.304v4.457z" fill="#686868"/><path d="M5.441 7.41a.41.41 0 100-.82.41.41 0 000 .82zm-3.062 0a.41.41 0 100-.82.41.41 0 000 .82z" fill="#686868"/></svg>