<svg width="14" height="14" fill="none" xmlns="http://www.w3.org/2000/svg"><path d="M13.59 6.617h-.631c.14-.241.22-.521.22-.82v-1.23a.41.41 0 00-.41-.41h-.776c.236-1.102 1.357-1.705 1.376-1.715a.41.41 0 00-.378-.728c-.04.02-.561.296-1.042.829V1.258a.41.41 0 10-.82 0v1.284a4.055 4.055 0 00-1.042-.828.41.41 0 10-.377.729c.013.006 1.14.602 1.376 1.713h-.777a.41.41 0 00-.41.41v1.23c0 .3.08.58.22.821H6.433l-.41-.82h1.825a.41.41 0 00.41-.41V.41a.41.41 0 00-.41-.41H1.23a.41.41 0 00-.41.41v4.977c0 .226.184.41.41.41h1.825l-.41.82H.41a.41.41 0 000 .82h.41v6.153a.41.41 0 10.82 0v-1.23h5.797v1.23c0 .226.184.41.41.41h4.923a.41.41 0 00.41-.41V7.438h.41a.41.41 0 100-.82zm-2.871-.82v-.82h1.64v.82a.821.821 0 01-1.64 0zM1.64.82h5.796v4.157H1.641V.82zm2.331 4.977h1.134l.41.82H3.562l.41-.82zM1.64 11.539V7.438h5.796v4.101H1.641zm6.617-.82h4.101v2.46h-4.1v-2.46zm4.101-.82h-4.1V7.437h4.101v2.46z" fill="#686868"/><path d="M10.309 9.078a.41.41 0 100-.82.41.41 0 000 .82zm0 3.282a.41.41 0 100-.821.41.41 0 000 .82z" fill="#686868"/></svg>