<svg width="113" height="25" fill="none" xmlns="http://www.w3.org/2000/svg"><path d="M.5 21.32a.532.532 0 01-.36-.14.533.533 0 01-.14-.36V7.822c0-.147.047-.267.14-.36a.531.531 0 01.36-.14h2.157c.32 0 .552.146.699.44l3.515 6.3 3.516-6.3c.146-.294.38-.44.699-.44h2.137c.146 0 .266.046.36.14.106.093.16.213.16.36V20.82a.457.457 0 01-.16.36.487.487 0 01-.36.14h-2.377a.557.557 0 01-.38-.14.488.488 0 01-.14-.36v-7.499l-2.236 4.18c-.173.306-.407.46-.7.46H6.353a.68.68 0 01-.42-.12 1.05 1.05 0 01-.28-.34l-2.256-4.18v7.5a.533.533 0 01-.14.36.487.487 0 01-.36.14H.5zm22.833 0a.532.532 0 01-.36-.14.533.533 0 01-.14-.36V7.822c0-.147.047-.267.14-.36a.532.532 0 01.36-.14h9.328c.146 0 .266.046.36.14a.49.49 0 01.139.36v1.88a.533.533 0 01-.14.36.486.486 0 01-.36.14h-6.37v2.7h5.932c.147 0 .267.053.36.16.093.093.14.213.14.36v1.739a.533.533 0 01-.14.36.486.486 0 01-.36.14H26.29v2.78h6.531c.147 0 .267.046.36.14.093.093.14.213.14.36v1.88a.533.533 0 01-.14.36.487.487 0 01-.36.14h-9.487zm19.049 0a.531.531 0 01-.36-.14.533.533 0 01-.14-.36V7.822c0-.147.047-.267.14-.36a.531.531 0 01.36-.14h9.587c.147 0 .267.046.36.14.093.093.14.213.14.36v2a.558.558 0 01-.14.38.486.486 0 01-.36.14h-6.491v2.36h2.776c1.598 0 2.856.38 3.775 1.14.919.76 1.378 1.799 1.378 3.119 0 .826-.2 1.573-.599 2.24-.4.653-.985 1.173-1.758 1.56-.772.373-1.704.56-2.796.56h-5.872zm5.553-2.6c.545 0 .972-.173 1.278-.52.32-.346.48-.766.48-1.26 0-.492-.154-.9-.46-1.219-.306-.32-.74-.48-1.298-.48h-2.457v3.48h2.456zm13.866 2.6a.532.532 0 01-.36-.14.533.533 0 01-.14-.36V7.822c0-.147.047-.267.14-.36a.531.531 0 01.36-.14h9.328c.147 0 .267.046.36.14.093.093.14.213.14.36v1.88a.533.533 0 01-.14.36.486.486 0 01-.36.14h-6.372v2.7h5.933c.146 0 .266.053.36.16.093.093.14.213.14.36v1.739a.533.533 0 01-.14.36.487.487 0 01-.36.14h-5.933v2.78h6.532c.147 0 .266.046.36.14.093.093.14.213.14.36v1.88a.533.533 0 01-.14.36.486.486 0 01-.36.14h-9.488zm27.918 0a.532.532 0 01-.36-.14.533.533 0 01-.14-.36V10.521h-3.715v1.82c0 2.253-.146 4.013-.44 5.28-.292 1.253-.831 2.18-1.617 2.78-.772.586-1.898.893-3.376.92a.557.557 0 01-.38-.14.52.52 0 01-.16-.38v-2.1c0-.28.167-.454.5-.52.72-.12 1.232-.707 1.538-1.76.307-1.067.46-2.58.46-4.54v-4.06c0-.146.046-.266.14-.36a.557.557 0 01.379-.14h9.748a.49.49 0 01.36.14.46.46 0 01.159.36v13a.457.457 0 01-.16.36.486.486 0 01-.36.14H89.72zm12.658 0a.532.532 0 01-.36-.14.534.534 0 01-.14-.36V7.822c0-.147.047-.267.14-.36a.532.532 0 01.36-.14h2.576c.147 0 .267.046.36.14.106.093.16.213.16.36v4.3h2.097c1.731 0 3.063.386 3.995 1.16.932.76 1.398 1.886 1.398 3.379 0 1.413-.473 2.546-1.418 3.4-.932.84-2.257 1.26-3.975 1.26h-5.193zm5.113-2.78c.559 0 .992-.173 1.298-.52.307-.346.46-.8.46-1.36 0-.586-.153-1.026-.46-1.319-.306-.307-.739-.46-1.298-.46h-2.017v3.66h2.017zM36.872.288a1.746 1.746 0 00-.449.068.305.305 0 00-.186.195c-.034.096-.05.252-.05.467v4.307c0 .18.013.314.042.398.028.08.076.133.144.162.073.028.189.042.347.042h.415c.384 0 .714-.172.99-.517.283-.345.467-.803.551-1.374h.195a8.83 8.83 0 00-.025.746c0 .543.02.99.059 1.34a50.431 50.431 0 00-1.94-.026c-1.23 0-2.15.009-2.76.026v-.17c.186-.011.321-.034.406-.067a.28.28 0 00.178-.196c.034-.096.05-.251.05-.466V1.018c0-.215-.016-.37-.05-.467a.28.28 0 00-.178-.195 1.414 1.414 0 00-.406-.068v-.17c.287.018.733.026 1.338.026.575 0 1.019-.008 1.33-.025v.17zM49.653 0c.598 0 1.12.122 1.566.365.452.243.802.596 1.05 1.06.249.457.373 1.006.373 1.644 0 .622-.127 1.173-.38 1.654-.255.48-.61.853-1.068 1.12-.452.265-.968.398-1.55.398-.598 0-1.123-.122-1.575-.365a2.56 2.56 0 01-1.042-1.051c-.248-.464-.372-1.015-.372-1.654 0-.622.127-1.173.38-1.653a2.77 2.77 0 011.06-1.12A3.045 3.045 0 0149.652 0zm-.034.153c-.31 0-.585.127-.822.381-.237.249-.42.6-.55 1.052a5.87 5.87 0 00-.187 1.551c0 .588.071 1.105.212 1.552.147.447.342.791.584 1.034.249.243.523.365.822.365.31 0 .584-.124.822-.373.237-.254.417-.608.542-1.06.13-.452.194-.97.194-1.552 0-.588-.073-1.105-.22-1.551-.141-.447-.336-.792-.584-1.035-.243-.243-.514-.364-.813-.364zM65.137.119c-.04.48-.059.91-.059 1.289 0 .265.008.48.025.644h-.194c-.113-.639-.283-1.088-.509-1.348-.225-.26-.542-.39-.948-.39h-.28c-.174 0-.302.014-.38.042a.254.254 0 00-.162.17 1.284 1.284 0 00-.042.39v2.136h.297c.299 0 .525-.11.677-.33a2.03 2.03 0 00.33-.789h.195c-.017.238-.025.503-.025.797v.407c0 .289.017.69.05 1.204h-.194c-.119-.746-.463-1.119-1.033-1.119h-.297v1.95c0 .226.023.393.068.5.05.102.135.17.254.204.124.034.319.054.584.06v.186a69.881 69.881 0 00-1.55-.026c-.282 0-.638.006-1.067.017l-.27.009v-.17c.186-.011.321-.034.406-.067a.28.28 0 00.178-.196c.034-.096.05-.251.05-.466V1.018c0-.215-.016-.37-.05-.467a.28.28 0 00-.178-.195 1.414 1.414 0 00-.407-.068v-.17c.61.018 1.53.026 2.761.026.83 0 1.42-.008 1.77-.025zm12.529 0a19.86 19.86 0 00-.059 1.441c0 .266.008.48.025.645h-.194c-.136-.696-.322-1.185-.56-1.467-.23-.283-.55-.424-.956-.424h-.195v4.841c0 .238.022.41.068.518a.41.41 0 00.254.22c.124.034.319.054.584.06v.169a73.543 73.543 0 00-1.61-.026c-.355 0-.871.009-1.549.026v-.17a2.51 2.51 0 00.576-.059.385.385 0 00.254-.22c.05-.108.076-.28.076-.518V.314h-.186c-.271 0-.503.06-.695.178-.186.118-.347.316-.482.593-.136.272-.251.645-.347 1.12h-.195a6.56 6.56 0 00.025-.645c0-.424-.02-.904-.06-1.441a91.83 91.83 0 002.618.025c1.23 0 2.1-.008 2.608-.025zM7.71.043h25.567v.96H7.71v-.96zM3.875 2.442h29.402v.96H3.875v-.96zM.36 5.002h32.917v.96H.36v-.96zM104.866.043H79.298v.96h25.568v-.96zm7.35 22.077H.36v.96h111.856v-.96zm-3.515 1.92H3.236V25H108.7v-.96zm0-21.598H79.298v.96h29.403v-.96zm3.515 2.56H79.298v.96h32.918v-.96z" fill="#2E2E2E"/></svg>