<svg width="24" height="24" fill="none" xmlns="http://www.w3.org/2000/svg"><path d="M21.429 12H2.57m18.858 0c.867 0 1.571-.704 1.571-1.571V8.857c0-.868-.704-1.571-1.571-1.571H2.57c-.866 0-1.57.703-1.57 1.571v1.572C1 11.296 1.704 12 2.571 12m18.858 0v7.857A3.143 3.143 0 0118.286 23H5.714a3.143 3.143 0 01-3.143-3.143V12M12 7.286V5.714m0 1.572H6.837a2.694 2.694 0 01-2.694-2.694v-.45A3.143 3.143 0 017.286 1 4.714 4.714 0 0112 5.714m0 1.572h5.163a2.694 2.694 0 002.694-2.694v-.45A3.143 3.143 0 0016.714 1 4.714 4.714 0 0012 5.714m0 1.572V23" stroke="#000" stroke-width="1.3"/></svg>