<svg width="14" height="14" fill="none" xmlns="http://www.w3.org/2000/svg"><path d="M13.942 5.35a1.95 1.95 0 00-1.47-1.417c-.058-.013-.116-.01-.174-.018A5.025 5.025 0 007.389 0h-.777a5.026 5.026 0 00-4.909 3.916 1.935 1.935 0 00-1.018.436C.25 4.722 0 5.262 0 5.833c0 .608.293 1.183.778 1.548v3.508c0 .573.315 1.07.778 1.34v.604a1.168 1.168 0 002.333 0v-.389h6.223v.39a1.168 1.168 0 002.333 0v-.606a1.55 1.55 0 00.778-1.34V7.382a1.945 1.945 0 00.72-2.03zM6.612.779h.777a4.25 4.25 0 014.123 3.198 1.928 1.928 0 00-.682.347 1.94 1.94 0 00-.719 1.51v1.945H3.89V5.916c0-.908-.59-1.7-1.4-1.942A4.25 4.25 0 016.61.778zm4.277 8.166a.39.39 0 01-.389.39h-7a.39.39 0 010-.778h7a.39.39 0 01.389.388zm-7.778 3.89a.39.39 0 01-.778 0v-.39h.778v.39zm8.556 0a.39.39 0 01-.778 0v-.39h.778v.39zm.97-5.997a.389.389 0 00-.193.336v3.716a.779.779 0 01-.777.778H2.333a.779.779 0 01-.777-.778V7.173a.39.39 0 00-.194-.336 1.154 1.154 0 01-.584-1.004 1.166 1.166 0 011.365-1.15c.552.09.968.62.968 1.233V7.85a1.165 1.165 0 00-.778 1.095c0 .644.524 1.167 1.167 1.167h7a1.165 1.165 0 00.389-2.262V5.833c0-.353.157-.683.432-.906.278-.226.63-.309.991-.233.421.088.772.426.873.841a1.157 1.157 0 01-.547 1.302z" fill="#686868"/></svg>