<svg width="14" height="14" fill="none" xmlns="http://www.w3.org/2000/svg"><path d="M7 0v7.875H0V14h14V0H7zm0 13.125H.875V8.75H7v4.375zm6.125 0h-5.25v-8.75h5.25v8.75zm0-9.625h-5.25V.875h5.25V3.5z" fill="#686868"/><path d="M6.125 2.881l-.875-.875V0h-.875v2.369l.875.875V3.5h-3.5v-.256l.875-.875V0H1.75v2.006l-.875.875v1.494h5.25V2.881zM5.25 9.625H2.625v.875H5.25v-.875zM9.625 1.75H8.75v.875h.875V1.75zm0 4.375H8.75V8.75h.875V6.125zM1.75 5.25H.875v.875h.875V5.25zm2.188 0h-.876v.875h.876V5.25zm2.187 0H5.25v.875h.875V5.25z" fill="#686868"/></svg>