<svg width="15" height="14" fill="none" xmlns="http://www.w3.org/2000/svg"><path fill-rule="evenodd" clip-rule="evenodd" d="M13.195 5.958l.01.007C13.578 6.24 14 6.552 14 7c0 .449-.423.76-.795 1.035-.216.157-.485.356-.52.487.012.253.083.5.207.72l.005.012c.188.433.38.876.163 1.25-.22.379-.714.434-1.19.488-.248.001-.49.059-.712.168-.11.222-.167.465-.17.712-.053.477-.115.975-.49 1.19-.375.217-.826.022-1.262-.168a1.643 1.643 0 00-.715-.21c-.127.033-.32.295-.478.509l-.009.012C7.76 13.579 7.449 14 7 14c-.449 0-.76-.422-1.034-.794v-.001c-.158-.216-.356-.485-.487-.52a1.672 1.672 0 00-.72.207l-.01.005c-.434.188-.878.382-1.253.163-.378-.22-.434-.713-.487-1.19a1.62 1.62 0 00-.17-.714 1.622 1.622 0 00-.71-.17c-.478-.05-.973-.111-1.191-.487-.218-.375-.022-.827.168-1.263a1.63 1.63 0 00.21-.714c-.033-.127-.296-.322-.51-.48l-.01-.007C.422 7.761 0 7.45 0 7c0-.449.422-.76.795-1.035.215-.157.485-.355.52-.487a1.629 1.629 0 00-.21-.716C.913 4.326.72 3.874.94 3.496s.713-.434 1.19-.487a1.62 1.62 0 00.71-.167c.11-.221.167-.465.169-.712.053-.48.116-.976.49-1.193.375-.216.826-.024 1.265.169.22.123.463.194.714.21.128-.033.32-.295.478-.509l.01-.012C6.24.421 6.55 0 7 0c.447 0 .757.418 1.033.79l.004.005c.158.215.355.485.487.52a1.63 1.63 0 00.714-.21c.436-.192.889-.385 1.267-.165.378.22.433.714.487 1.19 0 .248.059.493.169.715.221.11.464.168.711.17.477.05.973.11 1.19.486.218.376.022.828-.167 1.263a1.629 1.629 0 00-.21.714c.032.128.296.322.51.48zM4.93 8.4a.304.304 0 00.547-.182V5.783a.304.304 0 00-.608 0v1.522L3.59 5.6a.304.304 0 00-.548.183v2.435a.304.304 0 00.61 0V6.696L4.93 8.4zm2.678.122H6.392a.304.304 0 01-.305-.304V5.783c0-.168.136-.305.305-.305h1.217a.304.304 0 010 .61h-.913v.608h.913a.304.304 0 010 .609h-.913v.608h.913a.304.304 0 010 .61zm2.754-.208a.304.304 0 00.29.208h.012a.304.304 0 00.283-.23l.61-2.435a.305.305 0 00-.592-.148L10.61 7.13l-.278-.835a.318.318 0 00-.578 0l-.278.835-.355-1.42a.305.305 0 00-.59.147L9.14 8.29a.304.304 0 00.284.23.291.291 0 00.3-.207l.32-.96.32.96z" fill="#FFC107"/></svg>