<svg width="22" height="19" viewBox="0 0 22 19" fill="none" xmlns="http://www.w3.org/2000/svg">
<g filter="url(#filter0_b_205_550)">
<path d="M2.467 9.55034L10.9167 18L19.3663 9.55034C20.3056 8.61103 20.8333 7.33706 20.8333 6.00867C20.8333 3.24246 18.5909 1 15.8247 1C14.4963 1 13.2223 1.5277 12.283 2.46701L10.9167 3.83333L9.55034 2.46701C8.61103 1.5277 7.33706 1 6.00867 1C3.24246 1 1 3.24246 1 6.00867C1 7.33706 1.5277 8.61103 2.467 9.55034Z" fill="black"/>
<path d="M2.467 9.55034L10.9167 18L19.3663 9.55034C20.3056 8.61103 20.8333 7.33706 20.8333 6.00867C20.8333 3.24246 18.5909 1 15.8247 1C14.4963 1 13.2223 1.5277 12.283 2.46701L10.9167 3.83333L9.55034 2.46701C8.61103 1.5277 7.33706 1 6.00867 1C3.24246 1 1 3.24246 1 6.00867C1 7.33706 1.5277 8.61103 2.467 9.55034Z" stroke="black" stroke-linejoin="round"/>
</g>
<defs>
<filter id="filter0_b_205_550" x="-3.5" y="-3.5" width="28.8333" height="26" filterUnits="userSpaceOnUse" color-interpolation-filters="sRGB">
<feFlood flood-opacity="0" result="BackgroundImageFix"/>
<feGaussianBlur in="BackgroundImageFix" stdDeviation="2"/>
<feComposite in2="SourceAlpha" operator="in" result="effect1_backgroundBlur_205_550"/>
<feBlend mode="normal" in="SourceGraphic" in2="effect1_backgroundBlur_205_550" result="shape"/>
</filter>
</defs>
</svg>
