<svg width="22" height="22" fill="none" xmlns="http://www.w3.org/2000/svg"><path fill-rule="evenodd" clip-rule="evenodd" d="M10.833 4.189c2.034 0 3.406.879 4.189 1.613l3.057-2.985C16.202 1.07 13.76 0 10.833 0a10.825 10.825 0 00-9.678 5.97l3.503 2.72c.879-2.611 3.31-4.501 6.175-4.501z" fill="#EA4335"/><path fill-rule="evenodd" clip-rule="evenodd" d="M21.233 11.074c0-.89-.072-1.54-.229-2.215H10.833v4.02h5.97c-.12 1-.77 2.504-2.214 3.516l3.418 2.648c2.046-1.89 3.226-4.67 3.226-7.969z" fill="#4285F4"/><path fill-rule="evenodd" clip-rule="evenodd" d="M4.67 12.976a6.67 6.67 0 01-.36-2.143c0-.746.132-1.468.348-2.142L1.156 5.97A10.843 10.843 0 000 10.832c0 1.746.421 3.395 1.156 4.863l3.514-2.72z" fill="#FBBC05"/><path fill-rule="evenodd" clip-rule="evenodd" d="M10.834 21.667c2.925 0 5.38-.963 7.174-2.625l-3.419-2.648c-.915.638-2.142 1.084-3.755 1.084-2.865 0-5.297-1.89-6.163-4.502l-3.503 2.72c1.781 3.54 5.429 5.97 9.666 5.97z" fill="#34A853"/></svg>