<svg width="27" height="15" fill="none" xmlns="http://www.w3.org/2000/svg"><path fill-rule="evenodd" clip-rule="evenodd" d="M14.641 14.87s.481-.052.728-.311c.226-.239.218-.688.218-.688s-.03-2.098.962-2.408c.979-.305 2.235 2.03 3.567 2.927 1.007.678 1.772.53 1.772.53l3.562-.05s1.862-.112.98-1.55c-.074-.117-.516-1.063-2.649-3.007-2.234-2.034-1.934-1.705.756-5.225 1.638-2.143 2.293-3.451 2.088-4.01-.195-.536-1.4-.394-1.4-.394l-4.01.025s-.296-.04-.517.09c-.215.126-.355.422-.355.422s-.634 1.658-1.48 3.069c-1.785 2.975-2.499 3.132-2.791 2.948-.68-.431-.51-1.73-.51-2.654 0-2.884.446-4.087-.867-4.398-.436-.103-.757-.171-1.872-.183-1.43-.014-2.641.005-3.327.334-.457.22-.809.708-.594.736.265.035.865.16 1.183.584.411.55.397 1.781.397 1.781s.236 3.395-.552 3.817c-.54.289-1.28-.301-2.873-3.001-.815-1.383-1.431-2.912-1.431-2.912s-.119-.285-.331-.439C5.038.718 4.679.66 4.679.66L.87.684S.297.7.087.944c-.187.217-.015.666-.015.666s2.983 6.85 6.361 10.304c3.098 3.164 6.614 2.957 6.614 2.957h1.594z" fill="#4C6C91"/></svg>