<svg width="17" height="20" viewBox="0 0 17 20" fill="none" xmlns="http://www.w3.org/2000/svg">
<path d="M1.00802 17.5723L2.00802 8.5723C2.08036 7.92117 2.63073 7.42857 3.28587 7.42857H13.8415C14.4966 7.42857 15.047 7.92117 15.1193 8.5723L16.1193 17.5723C16.2039 18.3339 15.6078 19 14.8415 19H2.28587C1.51957 19 0.923392 18.3339 1.00802 17.5723Z" fill="black"/>
<path d="M4.70653 5.5V4.85714C4.70653 2.7269 6.43343 1 8.56367 1C10.6939 1 12.4208 2.7269 12.4208 4.85714V5.5M2.00802 8.5723L1.00802 17.5723C0.923392 18.3339 1.51957 19 2.28587 19H14.8415C15.6078 19 16.2039 18.3339 16.1193 17.5723L15.1193 8.5723C15.047 7.92117 14.4966 7.42857 13.8415 7.42857H3.28587C2.63073 7.42857 2.08036 7.92117 2.00802 8.5723Z" stroke="black"/>
</svg>
