<svg width="50" height="50" viewBox="0 0 50 50" fill="none" xmlns="http://www.w3.org/2000/svg">
<g clip-path="url(#clip0_44_6569)">
<path d="M32.3773 34.9536C23.2043 42.2443 11.1549 39.7773 5.04711 32.1512C-1.08636 24.495 -0.483592 13.3248 6.49738 6.3922C13.4466 -0.516256 24.6546 -1.04352 32.2111 5.07635C39.8266 11.2461 42.1969 23.2456 34.9923 32.3265C38.049 35.3781 41.1072 38.4317 44.1669 41.4874C45.6624 42.9815 47.1656 44.465 48.64 45.9802C48.9552 46.2956 49.1445 46.7152 49.1723 47.1603C49.2001 47.6053 49.0646 48.0452 48.7911 48.3974C48.5271 48.7551 48.1439 49.0068 47.7107 49.1071C47.2775 49.2074 46.8228 49.1496 46.4284 48.9443C46.1292 48.7592 45.8577 48.5329 45.6217 48.272C41.3655 44.0259 37.1134 39.7753 32.8652 35.5201C32.6794 35.3434 32.5359 35.1379 32.3773 34.9536ZM4.59541 20.0837C4.5981 23.145 5.50829 26.1368 7.21095 28.6809C8.9136 31.225 11.3323 33.2072 14.1612 34.377C16.9902 35.5467 20.1025 35.8516 23.1047 35.2529C26.1069 34.6543 28.8642 33.179 31.0281 31.0136C33.192 28.8482 34.6654 26.0899 35.262 23.0873C35.8586 20.0847 35.5516 16.9727 34.3799 14.1445C33.2082 11.3163 31.2244 8.899 28.6791 7.19809C26.1338 5.49717 23.1414 4.58899 20.0801 4.58839C15.973 4.5924 12.0354 6.22667 9.13254 9.13213C6.22963 12.0376 4.59883 15.9766 4.59843 20.0837H4.59541Z" fill="#464646"/>
<path d="M4.59864 20.0837C4.59566 17.0192 5.50218 14.0229 7.20339 11.474C8.9046 8.92517 11.324 6.93849 14.1551 5.76565C16.9862 4.59281 20.1017 4.28657 23.107 4.88567C26.1123 5.48476 28.8722 6.96223 31.0372 9.13102C33.2022 11.2998 34.6748 14.0623 35.2686 17.0687C35.8624 20.075 35.5507 23.19 34.3729 26.019C33.195 28.8481 31.2041 31.264 28.6523 32.9607C26.1005 34.6574 23.1025 35.5586 20.038 35.5503C15.9424 35.5379 12.0184 33.9036 9.12482 31.0049C6.23127 28.1063 4.60382 24.1794 4.59864 20.0837ZM21.9718 21.96C24.4403 21.96 26.806 21.96 29.1642 21.96C30.3728 21.96 31.181 21.2046 31.1931 20.1078C31.2067 18.9506 30.4181 18.1908 29.1657 18.1862C27.0508 18.1756 24.9358 18.1862 22.8208 18.1862H21.9687V17.2707C21.9687 15.2071 21.9687 13.1435 21.9687 11.0768C21.9687 9.7459 21.2436 8.96184 20.0562 8.96184C18.9096 8.96184 18.1965 9.75497 18.192 11.0406C18.192 12.4002 18.192 13.7598 18.192 15.1195V18.1847H17.3747C15.2854 18.1847 13.1976 18.1847 11.1083 18.1847C9.76525 18.1847 8.97214 18.8902 8.97063 20.067C8.96912 21.2439 9.76828 21.9585 11.1022 21.9615C13.19 21.9615 15.2793 21.9615 17.3671 21.9615H18.192V22.9042C18.192 25.0191 18.1799 27.1341 18.192 29.2491C18.201 30.4864 19.0637 31.2674 20.2768 31.1843C21.2678 31.1164 21.9597 30.2945 21.9642 29.1449C21.9763 26.7776 21.9702 24.4164 21.9702 21.96H21.9718Z" fill="white"/>
<path d="M21.9701 21.9599C21.9701 24.4164 21.9701 26.7776 21.9701 29.1388C21.9701 30.2885 21.2737 31.1027 20.2827 31.1783C19.0741 31.2614 18.207 30.4803 18.1979 29.243C18.1813 27.1281 18.1979 25.0131 18.1979 22.8981V21.9554H17.3731C15.2853 21.9554 13.196 21.9554 11.1082 21.9554C9.77421 21.9554 8.97656 21.2363 8.97656 20.061C8.97656 18.8857 9.7712 18.1802 11.1142 18.1786C13.2035 18.1786 15.2913 18.1786 17.3806 18.1786H18.1979V15.1134C18.1979 13.7538 18.1979 12.3942 18.1979 11.0345C18.1979 9.74893 18.9155 8.96185 20.0621 8.95581C21.2495 8.95581 21.9702 9.73987 21.9747 11.0708C21.9747 13.1329 21.9747 15.1965 21.9747 17.2647V18.1802H22.8267C24.9417 18.1802 27.0567 18.1726 29.1717 18.1802C30.4241 18.1802 31.2126 18.9446 31.199 20.1018C31.187 21.2016 30.3833 21.9494 29.1702 21.9539C26.8014 21.972 24.4386 21.9599 21.9701 21.9599Z" fill="#464646"/>
</g>
<defs>
<clipPath id="clip0_44_6569">
<rect width="50" height="50" fill="white"/>
</clipPath>
</defs>
</svg>
