<svg width="19" height="19" fill="none" xmlns="http://www.w3.org/2000/svg"><path d="M6.464 7.071H7.68m3.642 4.858h1.215m0-5.465l-6.072 6.072M8.652 1.35L7.28 2.722a1.2 1.2 0 01-.848.352h-2.16a1.2 1.2 0 00-1.2 1.2v2.159a1.2 1.2 0 01-.35.848L1.35 8.65a1.2 1.2 0 000 1.697l1.371 1.371a1.2 1.2 0 01.352.848v2.16a1.2 1.2 0 001.2 1.2h2.159a1.2 1.2 0 01.848.35l1.37 1.372a1.2 1.2 0 001.697 0l1.371-1.371a1.2 1.2 0 01.848-.352h2.16a1.2 1.2 0 001.2-1.2v-2.159a1.2 1.2 0 01.35-.848l1.372-1.37a1.2 1.2 0 000-1.697l-1.37-1.371a1.2 1.2 0 01-.352-.848v-2.16a1.2 1.2 0 00-1.2-1.2h-2.159a1.2 1.2 0 01-.848-.35L10.35 1.35a1.2 1.2 0 00-1.697 0z" stroke="#E92D2D"/></svg>