<svg width="23" height="22" fill="none" xmlns="http://www.w3.org/2000/svg"><path d="M22.772 18.326a.644.644 0 00-.908-.012l-.002.002-.002-.002.004-.003a2.82 2.82 0 01-.24.19V8.461a.644.644 0 10-1.288 0V9.1c-2.301-.053-3.486-.384-4.635-.705-1.06-.297-2.061-.577-3.744-.577-1.683 0-2.685.28-3.745.577-1.148.321-2.333.652-4.634.705V5.883c0-2.312 1.054-3.887 2.968-4.434a4.122 4.122 0 014.62 1.764c-.234.116-.433.24-.595.373l-.736-.736a.645.645 0 10-.912.911l.833.833-.833.834a.645.645 0 10.912.911l.736-.736c.222.181.512.347.87.497.609.256 1.334.428 1.805.428a1.936 1.936 0 001.934-1.934 1.936 1.936 0 00-1.934-1.933 3.86 3.86 0 00-.84.115A5.41 5.41 0 006.192.21C3.712.918 2.29 2.986 2.29 5.883v12.618a2.68 2.68 0 01-.24-.19l.004.003-.001.002-.002-.002a.645.645 0 00-.9.923c.056.056.787.752 2.49 1.428C5.346 21.343 8.019 22 11.958 22c3.938 0 6.612-.657 8.316-1.335 1.704-.676 2.435-1.372 2.491-1.428a.644.644 0 00.008-.911zM12.108 4.21c.46-.17.921-.26 1.138-.26a.645.645 0 010 1.289c-.217 0-.677-.09-1.138-.26-.4-.15-.624-.294-.733-.385.109-.09.334-.235.733-.384zm-8.53 6.178c2.486-.055 3.807-.424 4.982-.753 1.014-.284 1.89-.529 3.397-.529 1.506 0 2.382.245 3.397.53 1.175.328 2.495.697 4.982.752v6.452H3.578v-6.452zm0 7.741h16.758v1.104c-2.451 1.127-5.66 1.474-8.38 1.474-2.719 0-5.927-.347-8.378-1.474V18.13z" fill="#000"/><path d="M6.8 15.551a.645.645 0 00.645-.644v-2.578a.644.644 0 10-1.29 0v2.578c0 .356.29.644.645.644zm2.578 0a.645.645 0 00.645-.644v-2.578a.644.644 0 10-1.29 0v2.578c0 .356.29.644.645.644zm2.578 0a.645.645 0 00.645-.644v-2.578a.644.644 0 10-1.29 0v2.578c0 .356.29.644.645.644zm2.578 0a.645.645 0 00.645-.644v-2.578a.644.644 0 10-1.29 0v2.578c0 .356.29.644.646.644zm2.579 0a.644.644 0 00.644-.644v-2.578a.644.644 0 10-1.289 0v2.578c0 .356.289.644.645.644z" fill="#000"/></svg>