<svg width="23" height="22" fill="none" xmlns="http://www.w3.org/2000/svg"><path d="M22.313 10.398h-.992c.22-.38.347-.82.347-1.289V7.176a.645.645 0 00-.645-.645h-1.22c.371-1.73 2.132-2.677 2.162-2.693a.645.645 0 00-.593-1.145 6.374 6.374 0 00-1.638 1.302V1.977a.645.645 0 00-1.289 0v2.018a6.372 6.372 0 00-1.637-1.302.645.645 0 10-.592 1.145c.02.01 1.791.946 2.162 2.693h-1.222a.645.645 0 00-.644.645v1.933c0 .47.126.91.347 1.29h-5.793l-.644-1.29h2.867a.645.645 0 00.645-.644V.645A.645.645 0 0013.289 0H2.891a.645.645 0 00-.645.645v7.82c0 .356.289.644.645.644h2.867l-.645 1.29H1.602a.645.645 0 000 1.289h.644v9.667a.645.645 0 001.29 0v-1.933h9.109v1.933c0 .356.288.645.644.645h7.734a.645.645 0 00.645-.645v-9.668h.645a.644.644 0 100-1.289zM17.8 9.11V7.82h2.578v1.29a1.29 1.29 0 01-1.29 1.288A1.29 1.29 0 0117.8 9.109zM3.535 1.29h9.11v6.53h-9.11V1.29zM7.2 9.11h1.782l.644 1.29h-3.07L7.2 9.11zm-3.664 9.024v-6.445h9.11v6.445h-9.11zm10.399-1.29h6.445v3.868h-6.445v-3.867zm6.445-1.288h-6.445v-3.867h6.445v3.867z" fill="#000"/><path d="M17.156 14.266a.645.645 0 100-1.29.645.645 0 000 1.29zm0 5.156a.645.645 0 100-1.29.645.645 0 000 1.29z" fill="#000"/></svg>