<svg width="28" height="23" fill="none" xmlns="http://www.w3.org/2000/svg"><path d="M28 12.648a2.43 2.43 0 00-1.323-2.178c-.832-.426-1.909-.642-3.201-.642H9.425a2.81 2.81 0 00-.662-1.337L6.771 6.276c-.493-.548-1.202-.88-1.995-.937l-.358-.025a1.408 1.408 0 00-.548.072v-1.17c0-.41-.173-.781-.45-1.044.28-.335.45-.767.45-1.237A1.937 1.937 0 001.935 0 1.937 1.937 0 000 1.935c0 .47.169.902.449 1.237A1.435 1.435 0 000 4.215v17.456c0 .302.245.547.547.547h1.887a.547.547 0 00.545-.495c.065-.689.43-2.58 1.331-3.428h1.465a.547.547 0 000-1.094H1.094v-4.815h7.3v1.425c0 .843.685 1.53 1.528 1.53h16.549c.147 0 .294-.022.435-.064v1.924H10.587a.547.547 0 100 1.094H23.69c.898.845 1.265 2.738 1.331 3.428.027.28.262.495.545.495h1.887a.547.547 0 00.547-.547v-9.023zM3.871 7.174c.008-.233-.024-.473.168-.645.193-.172.425-.116.66-.099.516.037.952.236 1.259.578L7.95 9.223c.323.359.478.859.436 1.409-.016.211-.012.399-.19.548-.163.136-.34.11-.536.105-.55-.017-1.032-.223-1.355-.582L4.313 8.488c-.323-.359-.459-.838-.442-1.314zm-2.777 4.119V4.215c0-.19.155-.345.345-.345h.991c.19 0 .346.155.346.345v7.077H1.094zM3.87 9.63l1.495 1.662H3.87V9.63zM1.935 1.094a.842.842 0 010 1.682.842.842 0 010-1.682zm.023 20.03h-.864v-2.83h1.834c-.592.97-.86 2.168-.97 2.83zm7.964-6.877a.436.436 0 01-.435-.436v-2.889h13.989c1.117 0 2.027.176 2.703.521.449.23.727.691.727 1.205v1.163c0 .24-.195.436-.435.436H9.922zm16.12 6.877c-.11-.662-.378-1.86-.97-2.83h1.834v2.83h-.864z" fill="#000"/><path d="M8.686 17.539a.552.552 0 00-.714-.296.551.551 0 00-.296.714c.114.275.439.41.714.296a.552.552 0 00.296-.714z" fill="#000"/></svg>