<svg width="17" height="20" fill="none" xmlns="http://www.w3.org/2000/svg"><path d="M2.008 8.572l-.497-.055.497.055zm-1 9l.497.056-.497-.056zm15.111 0l-.497.056.497-.056zm-1-9l.497-.055-.497.055zM1.511 8.517l-1 9 .994.11 1-9-.994-.11zM2.286 19.5h12.556v-1H2.286v1zm14.33-1.983l-1-9-.994.11 1 9 .994-.11zM13.842 6.93H3.286v1h10.556v-1zm1.774 1.588a1.786 1.786 0 00-1.774-1.588v1c.4 0 .736.3.78.699l.994-.11zM14.842 19.5a1.786 1.786 0 001.774-1.983l-.994.11a.786.786 0 01-.78.873v1zM.511 17.517A1.786 1.786 0 002.285 19.5v-1a.786.786 0 01-.781-.872l-.994-.11zm1.993-8.89a.786.786 0 01.78-.698v-1c-.909 0-1.673.684-1.774 1.588l.994.11zM5.207 5.5v-.643h-1V5.5h1zm6.714-.643V5.5h1v-.643h-1zM8.564 1.5a3.357 3.357 0 013.357 3.357h1A4.357 4.357 0 008.564.5v1zM5.207 4.857A3.357 3.357 0 018.564 1.5v-1a4.357 4.357 0 00-4.357 4.357h1z" fill="#000"/></svg>