<svg width="29" height="18" fill="none" xmlns="http://www.w3.org/2000/svg"><path d="M7.854 14.958H5.438a.604.604 0 010-1.208h2.416a.604.604 0 010 1.208zm19.636 0h-1.51a.604.604 0 010-1.208h1.008l.815-4.34c-.011-2.221-1.908-4.118-4.24-4.118h-3.967l-1.923 8.458h3.473a.604.604 0 010 1.208h-4.23a.605.605 0 01-.589-.737l2.197-9.666a.604.604 0 01.59-.472h4.448A5.444 5.444 0 0129 9.521l-.917 4.944a.603.603 0 01-.593.493z" fill="#fff"/><path d="M23.563 17.375a3.024 3.024 0 01-3.021-3.02 3.024 3.024 0 013.02-3.022 3.024 3.024 0 013.021 3.021 3.024 3.024 0 01-3.02 3.021zm0-4.833c-1 0-1.813.813-1.813 1.812 0 1 .813 1.813 1.813 1.813.999 0 1.812-.814 1.812-1.813 0-1-.813-1.812-1.813-1.812zM10.27 17.375a3.024 3.024 0 01-3.02-3.02 3.024 3.024 0 013.02-3.022 3.024 3.024 0 013.022 3.021 3.024 3.024 0 01-3.021 3.021zm0-4.833c-.998 0-1.812.813-1.812 1.812 0 1 .814 1.813 1.813 1.813a1.814 1.814 0 000-3.625zM7.854 4.083H3.021a.604.604 0 010-1.208h4.833a.604.604 0 010 1.208zm0 3.625H1.813a.604.604 0 010-1.208h6.041a.604.604 0 010 1.208zm0 3.625H.604a.604.604 0 010-1.208h7.25a.604.604 0 010 1.208z" fill="#fff"/><path d="M16.917 14.958h-4.23a.604.604 0 010-1.208h3.748L19.18 1.667H5.438a.604.604 0 010-1.209h14.5a.605.605 0 01.59.737l-3.022 13.292a.605.605 0 01-.59.471z" fill="#fff"/></svg>