<svg width="22" height="22" fill="none" xmlns="http://www.w3.org/2000/svg"><path fill-rule="evenodd" clip-rule="evenodd" d="M20.733 9.362l.016.011C21.335 9.803 22 10.295 22 11c0 .704-.665 1.194-1.25 1.625-.339.247-.762.56-.817.766.02.397.13.784.325 1.13l.009.02c.295.68.597 1.377.255 1.965-.345.594-1.12.681-1.87.765-.388.003-.77.093-1.118.265-.172.348-.263.73-.266 1.118-.084.75-.181 1.532-.77 1.871-.59.34-1.3.034-1.984-.265a2.58 2.58 0 00-1.123-.329c-.2.052-.503.462-.751.799l-.014.019-.001.001c-.431.585-.92 1.248-1.625 1.248-.706 0-1.195-.663-1.626-1.248v-.001c-.248-.339-.56-.761-.766-.817a2.626 2.626 0 00-1.13.325l-.017.008c-.68.296-1.379.6-1.968.256-.594-.346-.68-1.12-.765-1.87a2.547 2.547 0 00-.266-1.122 2.547 2.547 0 00-1.118-.267c-.75-.079-1.528-.175-1.87-.765-.342-.59-.034-1.3.264-1.984.195-.344.307-.728.329-1.122-.05-.2-.465-.506-.8-.754l-.017-.011c-.586-.43-1.25-.92-1.25-1.627 0-.705.664-1.195 1.25-1.626.338-.246.76-.558.816-.765a2.56 2.56 0 00-.33-1.125c-.301-.686-.605-1.396-.26-1.99.346-.594 1.122-.681 1.872-.765a2.555 2.555 0 001.114-.262 2.56 2.56 0 00.266-1.118c.084-.754.182-1.535.77-1.875.589-.34 1.299-.038 1.987.265.345.193.729.305 1.123.329.2-.052.503-.462.751-.798l.014-.02.001-.001C9.805.663 10.294 0 11 0c.703 0 1.19.657 1.623 1.24l.006.01c.248.338.559.76.765.816a2.568 2.568 0 001.123-.33c.685-.301 1.396-.605 1.99-.258.594.346.68 1.12.765 1.87.002.39.093.773.266 1.122.347.173.73.264 1.118.266.749.08 1.527.176 1.87.766.342.59.034 1.3-.264 1.984a2.56 2.56 0 00-.33 1.122c.052.2.466.506.802.754zM7.747 13.199a.478.478 0 00.861-.287V9.087a.478.478 0 00-.956 0v2.39L5.643 8.8a.478.478 0 00-.86.287v3.825a.478.478 0 00.956 0v-2.39l2.008 2.677zm4.209.192h-1.913a.478.478 0 01-.478-.479V9.087c0-.265.214-.479.478-.479h1.913a.478.478 0 010 .957H10.52v.956h1.435a.478.478 0 010 .957H10.52v.956h1.435a.478.478 0 010 .957zm4.328-.327a.478.478 0 00.454.327l.02-.001a.478.478 0 00.445-.362l.957-3.826a.479.479 0 00-.93-.231l-.557 2.232-.437-1.311a.498.498 0 00-.908 0l-.437 1.311-.557-2.232a.479.479 0 10-.929.231l.956 3.826a.478.478 0 00.446.362.457.457 0 00.473-.326l.502-1.509.502 1.509z" fill="#414141"/></svg>