<svg width="22" height="19" fill="none" xmlns="http://www.w3.org/2000/svg"><path d="M10.917 18l-.354.354a.5.5 0 00.707 0L10.917 18zm-8.45-8.45l-.354.354.354-.354zM9.55 2.467l-.353.354.353-.354zm1.367 1.366l-.354.354a.5.5 0 00.707 0l-.353-.354zm1.366-1.366l-.354-.354.354.354zm-1.013 15.18l-8.45-8.45-.707.707 8.45 8.45.707-.708zm7.743-8.45l-8.45 8.45.707.707 8.45-8.45-.707-.707zM9.197 2.82l1.366 1.366.707-.707-1.366-1.367-.707.708zm2.073 1.366l1.367-1.366-.708-.708-1.366 1.367.707.707zM15.825.5c-1.461 0-2.862.58-3.896 1.613l.707.708A4.509 4.509 0 0115.825 1.5v-1zm4.508 5.509a4.509 4.509 0 01-1.32 3.188l.707.707a5.509 5.509 0 001.613-3.895h-1zm1 0A5.509 5.509 0 0015.825.5v1a4.509 4.509 0 014.508 4.509h1zM6.01 1.5c1.195 0 2.342.475 3.188 1.32l.707-.707A5.509 5.509 0 006.009.5v1zM1.5 6.009A4.509 4.509 0 016.009 1.5v-1A5.509 5.509 0 00.5 6.009h1zm1.32 3.188A4.509 4.509 0 011.5 6.009h-1c0 1.46.58 2.862 1.613 3.895l.708-.707z" fill="#000"/></svg>