<svg width="68" height="68" fill="none" xmlns="http://www.w3.org/2000/svg"><path d="M40.562 16.688l4.66 3.447c.524.387.259 1.246-.404 1.25l-1.462.009h-.005a.686.686 0 01-.685-.68 1.992 1.992 0 00-3.984.025 4.677 4.677 0 003.403 4.463v.097a1.992 1.992 0 003.984 0v-.1a4.64 4.64 0 002.068-1.218 4.64 4.64 0 001.346-3.315v-.013a4.691 4.691 0 00-1.892-3.721l-4.66-3.447c-.528-.392-.25-1.236.409-1.236h1.464c.378 0 .686.308.686.685a1.992 1.992 0 003.984 0 4.677 4.677 0 00-3.405-4.493v-.096a1.992 1.992 0 00-3.985 0v.093a4.677 4.677 0 00-3.414 4.496c0 1.474.707 2.877 1.892 3.754z" fill="#245462"/><path d="M44.077 33.643c9.278 0 16.826-7.546 16.826-16.821C60.903 7.546 53.355 0 44.077 0S27.25 7.546 27.25 16.822c0 9.275 7.548 16.821 16.826 16.821zm0-29.659c7.08 0 12.841 5.76 12.841 12.838 0 7.078-5.76 12.837-12.841 12.837-7.081 0-12.842-5.759-12.842-12.837 0-7.079 5.76-12.838 12.842-12.838zM66.63 38.142c-2.155-2.774-6.044-3.296-8.844-1.353l-7.58 5.07a6.247 6.247 0 00-5.503-3.298h-5.406a14.865 14.865 0 00-10.132-4.013c-2.82 0-5.565.797-7.935 2.305a14.835 14.835 0 00-5.083 5.45l-1.015.621-.263-.769a1.992 1.992 0 00-2.53-1.24L1.35 44.67A1.993 1.993 0 00.107 47.2l6.65 19.452a1.992 1.992 0 002.529 1.24l10.991-3.755c.982-.336 1.625-1.407 1.22-2.594l17.44-.54a22.649 22.649 0 0013.174-4.219l13.153-9.355a6.497 6.497 0 001.365-9.287zM9.884 63.478L4.522 47.796l7.221-2.467 5.362 15.682-7.221 2.467zm53.071-19.296l-13.153 9.355a18.687 18.687 0 01-10.957 3.482l-18.696.58-3.697-10.812 2.247-1.374.001-.001c.331-.203.59-.5.748-.821a10.755 10.755 0 019.717-6.059c3.007 0 5.8 1.204 7.863 3.39.38.402.927.623 1.449.623h6.227a2.257 2.257 0 110 4.512h-11.24a1.992 1.992 0 000 3.985h11.24c1.668 0 3.236-.65 4.412-1.828a6.2 6.2 0 001.654-2.938l9.246-6.186.033-.023a2.518 2.518 0 012.906 4.115z" fill="#245462"/></svg>