<svg width="70" height="70" fill="none" xmlns="http://www.w3.org/2000/svg"><path d="M61.745 14.007h2.1a1.327 1.327 0 000-2.654h-5.043c-.733 0-1.327.594-1.327 1.327v5.044a1.327 1.327 0 002.654 0v-1.46A31.243 31.243 0 0166.346 35c0 17.284-14.062 31.346-31.346 31.346S3.655 52.284 3.655 35 17.716 3.655 35 3.655c1.278 0 2.565.077 3.824.23a1.328 1.328 0 00.32-2.635A34.484 34.484 0 0035 1c-9.082 0-17.62 3.537-24.042 9.958C4.537 17.38 1 25.918 1 35s3.537 17.62 9.958 24.042C17.38 65.463 25.918 69 35 69s17.62-3.537 24.042-9.958C65.463 52.62 69 44.082 69 35a33.89 33.89 0 00-7.255-20.993z" fill="#245462"/><path d="M15.397 21.043a1.328 1.328 0 00-1.832.412c-3.03 4.785-4.37 10.54-3.776 16.205a25.41 25.41 0 007.286 15.266c4.942 4.942 11.433 7.413 17.925 7.413 6.492 0 12.984-2.471 17.926-7.413 9.884-9.884 9.884-25.967 0-35.851a25.41 25.41 0 00-15.24-7.284c-5.655-.599-11.404.732-16.188 3.747a1.327 1.327 0 101.416 2.246C31.93 10.1 43.5 11.403 51.049 18.952c8.849 8.849 8.849 23.247 0 32.097-8.85 8.849-23.248 8.849-32.097 0-7.445-7.445-8.767-19.293-3.144-28.174.392-.62.208-1.44-.411-1.832z" fill="#245462"/><path d="M52.254 36.349h1.637a1.327 1.327 0 000-2.655h-1.637a1.327 1.327 0 000 2.655zm-37.472-1.371c0 .733.594 1.328 1.327 1.328h1.637a1.327 1.327 0 000-2.655h-1.637c-.733 0-1.327.594-1.327 1.327zm21.567-17.232v-1.637a1.327 1.327 0 00-2.655 0v1.637a1.327 1.327 0 002.655 0zm-2.698 34.508v1.637a1.327 1.327 0 002.655 0v-1.637a1.327 1.327 0 00-2.655 0zM28.347 26.47a1.328 1.328 0 00-1.877 1.877l4.498 4.498a4.545 4.545 0 00-.54 2.155A4.578 4.578 0 0035 39.572 4.578 4.578 0 0039.572 35c0-.779-.196-1.512-.54-2.154l9.076-9.077a1.327 1.327 0 00-1.877-1.877l-9.077 9.076a4.543 4.543 0 00-2.154-.54c-.779 0-1.512.196-2.154.54l-4.499-4.498zm8.57 8.53A1.92 1.92 0 0135 36.918 1.92 1.92 0 0133.082 35 1.92 1.92 0 0135 33.082 1.92 1.92 0 0136.918 35zM18.95 18.95a1.321 1.321 0 000-1.876 1.336 1.336 0 00-.938-.389 1.333 1.333 0 00-1.327 1.328 1.331 1.331 0 001.328 1.327c.35 0 .691-.142.938-.39zM44.194 4.966a1.332 1.332 0 001.329-1.328c0-.349-.142-.691-.39-.938a1.338 1.338 0 00-.94-.389c-.348 0-.69.142-.937.389a1.34 1.34 0 00-.39.938 1.331 1.331 0 001.327 1.327z" fill="#245462"/><path d="M61.745 14.007h2.1a1.327 1.327 0 000-2.654h-5.043c-.733 0-1.327.594-1.327 1.327v5.044a1.327 1.327 0 002.654 0v-1.46A31.243 31.243 0 0166.346 35c0 17.284-14.062 31.346-31.346 31.346S3.655 52.284 3.655 35 17.716 3.655 35 3.655c1.278 0 2.565.077 3.824.23a1.328 1.328 0 00.32-2.635A34.484 34.484 0 0035 1c-9.082 0-17.62 3.537-24.042 9.958C4.537 17.38 1 25.918 1 35s3.537 17.62 9.958 24.042C17.38 65.463 25.918 69 35 69s17.62-3.537 24.042-9.958C65.463 52.62 69 44.082 69 35a33.89 33.89 0 00-7.255-20.993z" stroke="#245462"/><path d="M15.397 21.043a1.328 1.328 0 00-1.832.412c-3.03 4.785-4.37 10.54-3.776 16.205a25.41 25.41 0 007.286 15.266c4.942 4.942 11.433 7.413 17.925 7.413 6.492 0 12.984-2.471 17.926-7.413 9.884-9.884 9.884-25.967 0-35.851a25.41 25.41 0 00-15.24-7.284c-5.655-.599-11.404.732-16.188 3.747a1.327 1.327 0 101.416 2.246C31.93 10.1 43.5 11.403 51.049 18.952c8.849 8.849 8.849 23.247 0 32.097-8.85 8.849-23.248 8.849-32.097 0-7.445-7.445-8.767-19.293-3.144-28.174.392-.62.208-1.44-.411-1.832z" stroke="#245462"/><path d="M52.254 36.349h1.637a1.327 1.327 0 000-2.655h-1.637a1.327 1.327 0 000 2.655zm-37.472-1.371c0 .733.594 1.328 1.327 1.328h1.637a1.327 1.327 0 000-2.655h-1.637c-.733 0-1.327.594-1.327 1.327zm21.567-17.232v-1.637a1.327 1.327 0 00-2.655 0v1.637a1.327 1.327 0 002.655 0zm-2.698 34.508v1.637a1.327 1.327 0 002.655 0v-1.637a1.327 1.327 0 00-2.655 0zM28.347 26.47a1.328 1.328 0 00-1.877 1.877l4.498 4.498a4.545 4.545 0 00-.54 2.155A4.578 4.578 0 0035 39.572 4.578 4.578 0 0039.572 35c0-.779-.196-1.512-.54-2.154l9.076-9.077a1.327 1.327 0 00-1.877-1.877l-9.077 9.076a4.543 4.543 0 00-2.154-.54c-.779 0-1.512.196-2.154.54l-4.499-4.498zm8.57 8.53A1.92 1.92 0 0135 36.918 1.92 1.92 0 0133.082 35 1.92 1.92 0 0135 33.082 1.92 1.92 0 0136.918 35zM18.95 18.95a1.321 1.321 0 000-1.876 1.336 1.336 0 00-.938-.389 1.333 1.333 0 00-1.327 1.328 1.331 1.331 0 001.328 1.327c.35 0 .691-.142.938-.39zM44.194 4.966a1.332 1.332 0 001.329-1.328c0-.349-.142-.691-.39-.938a1.338 1.338 0 00-.94-.389c-.348 0-.69.142-.937.389a1.34 1.34 0 00-.39.938 1.331 1.331 0 001.327 1.327z" stroke="#245462"/></svg>