<svg width="20" height="14" fill="none" xmlns="http://www.w3.org/2000/svg"><path d="M18.766 10.128h-.894V8.34h.596a.298.298 0 00.294-.346l-.298-1.788a.298.298 0 00-.294-.249h-1.19a.298.298 0 00-.294.25l-.298 1.787a.298.298 0 00.294.346h.596v1.788h-1.192a.234.234 0 00-.03.006 1.491 1.491 0 00-1.46-1.198H14v-.893c0-.494-.4-.894-.894-.894h-2.383c-.493 0-.893.4-.893.894v.893h-.596v-.893c0-.494-.4-.894-.894-.894H5.957c-.493 0-.893.4-.893.894v.893h-.596c-.71.001-1.32.502-1.46 1.198a.232.232 0 00-.03-.006h-1.19V8.34h.595a.298.298 0 00.294-.346l-.298-1.788a.298.298 0 00-.294-.249H.894a.298.298 0 00-.294.25L.302 7.993a.298.298 0 00.294.346h.595v1.788H.298a.298.298 0 00-.298.297v3.277c0 .165.133.298.298.298h18.468a.298.298 0 00.298-.298v-3.277a.298.298 0 00-.298-.297zM.948 7.745l.198-1.192h.687l.198 1.192H.948zm1.733 5.66H.596v-2.682H2.68v2.681zm7.745-5.362c0-.165.133-.298.297-.298h2.383c.165 0 .298.133.298.298v.893h-2.979v-.893zm-4.766 0c0-.165.133-.298.297-.298H8.34c.165 0 .298.133.298.298v.893H5.66v-.893zm9.83 5.361H3.573v-.893H15.49v.893zm0-1.49H3.573v-1.489c0-.493.4-.893.894-.893h10.128c.493 0 .893.4.893.893v1.49zm1.543-4.17l.198-1.19h.687l.198 1.19h-1.083zm1.435 5.66h-2.085v-2.68h2.085v2.68zM5.957 5.362h6.554a.298.298 0 00.298-.298V.298A.298.298 0 0012.51 0H5.957a.298.298 0 00-.297.298v4.766c0 .164.133.298.297.298zM6.255.596h5.958v3.023l-.661-.826a.298.298 0 00-.443-.025l-.981.981-1.875-1.874a.298.298 0 00-.404-.016L6.255 3.225V.595zm0 3.413l1.772-1.52 1.89 1.89a.298.298 0 00.421 0l.956-.955.919 1.149v.193H6.255v-.757z" fill="#686868"/><path d="M10.425 2.68a.894.894 0 100-1.786.894.894 0 000 1.787zm0-1.19a.298.298 0 110 .595.298.298 0 010-.596z" fill="#686868"/></svg>