<svg width="68" height="51" fill="none" xmlns="http://www.w3.org/2000/svg"><path d="M67.9 23.953C66.896 13.88 58.372 5.988 48.04 5.988h-1.997V0H32.07v11.976H5.988v11.977H0v20.626h8.237c.889 3.44 4.018 5.989 7.732 5.989 3.713 0 6.843-2.549 7.732-5.989h22.595c.888 3.44 4.018 5.989 7.732 5.989 3.713 0 6.843-2.549 7.731-5.989H68V23.953h-.1zM48.04 9.98c8.128 0 14.858 6.107 15.844 13.973h-17.84V9.98h1.995zM36.062 3.992h5.988v19.961h-5.988V3.993zM9.98 15.97h22.09v7.984H9.98V15.97zm5.989 30.606a3.997 3.997 0 01-3.992-3.992 3.997 3.997 0 013.992-3.992 3.997 3.997 0 013.992 3.992 3.997 3.997 0 01-3.992 3.992zm7.732-5.988c-.89-3.44-4.019-5.988-7.732-5.988-3.714 0-6.843 2.548-7.732 5.988H3.992V27.945h38.059v12.642H23.7zm30.326 5.988a3.997 3.997 0 01-3.992-3.992 3.997 3.997 0 013.992-3.992 3.997 3.997 0 013.993 3.992 3.997 3.997 0 01-3.993 3.992zm9.98-5.988H61.76c-.889-3.44-4.018-5.988-7.732-5.988-3.713 0-6.843 2.548-7.731 5.988h-.253V27.945h17.965v12.642z" fill="#245462"/></svg>