<svg width="27" height="25" fill="none" xmlns="http://www.w3.org/2000/svg"><path d="M13.556 11.894c-1.328 0-2.408-.965-2.408-2.15 0-1.186 1.08-2.15 2.408-2.15 1.328 0 2.41.964 2.41 2.15 0 .431.346.781.774.781.428 0 .775-.35.775-.781 0-1.8-1.371-3.302-3.184-3.642V4.345a.778.778 0 00-.775-.782.778.778 0 00-.774.782v1.757c-1.813.34-3.184 1.842-3.184 3.642 0 2.047 1.776 3.713 3.958 3.713 1.329 0 2.41.965 2.41 2.15 0 1.187-1.081 2.152-2.41 2.152-1.47 0-2.565-.787-2.79-2.004a.775.775 0 10-1.523.287c.319 1.726 1.7 2.953 3.539 3.223v1.39c0 .432.347.782.774.782.428 0 .775-.35.775-.782V19.25c1.813-.338 3.184-1.842 3.184-3.641 0-2.048-1.777-3.714-3.959-3.714z" fill="#000"/><path d="M19.774 22.317a.771.771 0 00-1.056-.294c-4.223 2.419-9.575 1.685-13.014-1.785-3.263-3.293-4.006-8.179-2.231-12.2l1.136 1.146a.77.77 0 00.844.17.782.782 0 00.478-.722V4.21a.818.818 0 00-.015-.153c-.005-.023-.013-.045-.02-.067a.72.72 0 00-.024-.079c-.011-.026-.026-.05-.04-.075-.01-.02-.019-.04-.031-.06a.787.787 0 00-.215-.217c-.019-.012-.038-.02-.057-.03-.025-.015-.05-.03-.077-.042-.025-.01-.05-.016-.075-.023-.023-.007-.045-.016-.07-.021a.793.793 0 00-.148-.015H.775a.775.775 0 00-.716.481.786.786 0 00.168.852l2.084 2.103C-.031 11.555.733 17.43 4.609 21.34A12.357 12.357 0 0013.39 25c2.09 0 4.19-.53 6.092-1.619a.783.783 0 00.291-1.064zm6.743-2.079l-2.084-2.103c2.341-4.69 1.578-10.566-2.298-14.477-3.93-3.965-10.045-4.803-14.874-2.04a.786.786 0 00-.292 1.065.771.771 0 001.057.295C12.25.56 17.602 1.294 21.04 4.763c3.263 3.293 4.005 8.18 2.231 12.2l-1.136-1.147a.77.77 0 00-.844-.17.782.782 0 00-.478.723v4.42c0 .052.006.103.015.154.005.023.013.045.02.067.008.027.014.053.024.079.01.027.026.05.04.076.01.02.019.04.031.058a.78.78 0 00.215.217c.019.012.038.02.057.032.026.014.05.029.076.04.026.01.052.016.078.024.022.007.044.015.067.02.05.01.1.015.152.015h4.381c.314 0 .596-.19.716-.482a.785.785 0 00-.168-.851z" fill="#000"/></svg>