<svg width="25" height="25" fill="none" xmlns="http://www.w3.org/2000/svg"><path d="M14.069 6.276h-3.923a.732.732 0 00-.732.732v5.544h-.837a.732.732 0 100 1.465h.837v1.673h-.837a.732.732 0 100 1.465h.837v1.621a.732.732 0 001.465 0v-1.621h3.19a.732.732 0 100-1.465h-3.19v-1.673h3.19a3.875 3.875 0 003.87-3.87 3.87 3.87 0 00-3.87-3.871zm0 6.276h-3.19V7.741h3.19a2.403 2.403 0 012.406 2.405 2.408 2.408 0 01-2.406 2.406z" fill="#000"/><path d="M12.5 0C5.607 0 0 5.607 0 12.5 0 19.392 5.607 25 12.5 25 19.392 25 25 19.392 25 12.5 25 5.607 19.392 0 12.5 0zm0 23.535c-6.085 0-11.035-4.95-11.035-11.035S6.415 1.465 12.5 1.465 23.535 6.415 23.535 12.5 18.585 23.535 12.5 23.535z" fill="#000"/></svg>