<svg width="46" height="46" fill="none" xmlns="http://www.w3.org/2000/svg"><circle cx="23" cy="23" r="23" fill="#fff"/><path d="M23.39 32h-.78a2.346 2.346 0 01-2.344-2.344v-.393a.261.261 0 00-.166-.24l-.015-.005a.262.262 0 00-.287.051l-.278.278a2.328 2.328 0 01-1.658.687 2.328 2.328 0 01-1.657-.687l-.552-.552a2.328 2.328 0 01-.687-1.657c0-.626.244-1.215.687-1.658l.278-.278a.262.262 0 00.051-.287l-.006-.014a.261.261 0 00-.239-.167h-.393A2.346 2.346 0 0113 22.391v-.782a2.346 2.346 0 012.344-2.343h.393a.261.261 0 00.24-.166l.005-.015a.262.262 0 00-.051-.287l-.278-.278a2.328 2.328 0 01-.687-1.657c0-.627.244-1.215.687-1.658l.552-.552a2.328 2.328 0 011.657-.687c.627 0 1.215.244 1.658.687l.278.278a.262.262 0 00.287.051l.015-.006a.261.261 0 00.166-.239v-.393A2.346 2.346 0 0122.609 12h.782a2.346 2.346 0 012.343 2.344v.393c0 .104.066.198.166.24l.015.005a.262.262 0 00.287-.051l.278-.278a2.328 2.328 0 011.658-.687c.626 0 1.214.244 1.657.687l.552.552c.443.443.687 1.031.687 1.657a2.33 2.33 0 01-.687 1.658l-.278.278a.262.262 0 00-.051.287l.006.014a.26.26 0 00.239.167h.393A2.346 2.346 0 0133 21.609v.782c0 1.07-.723 2.003-1.758 2.27a.781.781 0 01-.39-1.514.78.78 0 00.585-.756v-.782c0-.43-.35-.78-.78-.78h-.394c-.739 0-1.4-.445-1.683-1.133l-.006-.014a1.818 1.818 0 01.39-1.989l.278-.278a.776.776 0 00.23-.552.776.776 0 00-.23-.553l-.552-.552a.776.776 0 00-.552-.23.776.776 0 00-.553.23l-.278.278a1.82 1.82 0 01-1.992.39l-.011-.006a1.819 1.819 0 01-1.132-1.683v-.393a.781.781 0 00-.781-.781h-.782c-.43 0-.78.35-.78.78v.394c0 .739-.445 1.4-1.133 1.683l-.011.005a1.82 1.82 0 01-1.992-.39l-.278-.277a.776.776 0 00-.553-.23.776.776 0 00-.552.23l-.552.552a.776.776 0 00-.23.553c0 .208.082.404.23.552l.278.278a1.82 1.82 0 01.39 1.992l-.006.011a1.819 1.819 0 01-1.683 1.132h-.393a.781.781 0 00-.781.781v.782c0 .43.35.78.78.78h.394c.739 0 1.4.445 1.683 1.133l.005.011a1.82 1.82 0 01-.39 1.992l-.277.278a.776.776 0 00-.23.552c0 .21.082.405.23.553l.552.552a.776.776 0 00.552.23.776.776 0 00.553-.23l.278-.278a1.82 1.82 0 011.992-.39l.011.006a1.819 1.819 0 011.132 1.683v.393c0 .431.35.782.781.782h.782c.343 0 .643-.22.745-.547a.781.781 0 011.491.468A2.334 2.334 0 0123.391 32zm8.94-.709a2.27 2.27 0 00.67-1.616 2.27 2.27 0 00-.67-1.617l-5.066-5.045c.233-.51.384-1.099.384-1.573.002-1.011-.388-1.936-1.127-2.676-.906-.905-2.282-1.445-3.684-1.445h-.009a4.12 4.12 0 00-1.357.235.781.781 0 00-.308 1.287l1.882 1.922-.236 1.013-.996.227-1.911-1.916a.781.781 0 00-1.293.3c-.168.496-.25.954-.251 1.402-.002 1.164.363 2.328 1.002 3.195.773 1.048 1.878 1.625 3.113 1.625h.006c.431 0 1.034-.122 1.573-.356l5.046 5.038a2.27 2.27 0 001.616.67 2.27 2.27 0 001.617-.67zm-8.595-6.639c-.323.232-.923.394-1.259.395-.933 0-1.525-.538-1.858-.99-.344-.467-.574-1.066-.66-1.701l1.053 1.056c.19.19.465.27.726.21l1.895-.43a.781.781 0 00.589-.585l.443-1.908a.781.781 0 00-.203-.724l-1.029-1.05c.775.115 1.49.45 1.984.944.445.446.67.973.67 1.568 0 .313-.184.915-.428 1.252a.781.781 0 00.082 1.012l5.486 5.463a.718.718 0 01.212.511.718.718 0 01-.212.511.72.72 0 01-1.023 0l-5.46-5.451a.78.78 0 00-1.008-.082z" fill="#000"/></svg>